<svg width="32" height="32" viewBox="0 0 32 32" fill="none" xmlns="http://www.w3.org/2000/svg">
<g clip-path="url(#clip0_19_268)">
<path d="M11.1477 1.0525C7.95043 2.16167 5.19309 4.26691 3.28071 7.059C1.36833 9.85109 0.401709 13.1829 0.522836 16.5649C0.643964 19.947 1.84645 23.201 3.95367 25.8492C6.06089 28.4973 8.96178 30.3999 12.2302 31.2775C14.88 31.9612 17.6563 31.9913 20.3202 31.365C22.7335 30.8229 24.9647 29.6634 26.7952 28C28.7004 26.2159 30.0833 23.9462 30.7952 21.435C31.569 18.7042 31.7067 15.8323 31.1977 13.04H16.3177V19.2125H24.9352C24.763 20.197 24.3939 21.1366 23.8501 21.9751C23.3063 22.8136 22.5989 23.5338 21.7702 24.0925C20.7179 24.7886 19.5317 25.2569 18.2877 25.4675C17.0401 25.6995 15.7604 25.6995 14.5127 25.4675C13.2482 25.2061 12.052 24.6841 11.0002 23.935C9.3106 22.739 8.04192 21.0398 7.37523 19.08C6.69727 17.0835 6.69727 14.919 7.37523 12.9225C7.8498 11.523 8.63431 10.2488 9.67023 9.19499C10.8557 7.96686 12.3566 7.08899 14.0081 6.65769C15.6597 6.22638 17.3981 6.25832 19.0327 6.75C20.3097 7.14197 21.4773 7.82684 22.4427 8.75C23.4144 7.78333 24.3844 6.81416 25.3527 5.8425C25.8527 5.32 26.3977 4.82249 26.8902 4.2875C25.4166 2.91619 23.6869 1.84914 21.8002 1.1475C18.3645 -0.10003 14.6052 -0.133556 11.1477 1.0525Z" fill="white"/>
<path d="M11.1474 1.05249C14.6046 -0.134368 18.3639 -0.101725 21.7999 1.14499C23.687 1.8514 25.4159 2.92358 26.8874 4.29999C26.3874 4.83499 25.8599 5.33499 25.3499 5.85499C24.3799 6.82332 23.4108 7.78832 22.4424 8.74999C21.4771 7.82683 20.3094 7.14197 19.0324 6.74999C17.3984 6.25659 15.66 6.22281 14.008 6.65235C12.356 7.08188 10.8542 7.95814 9.66744 9.18499C8.63153 10.2388 7.84701 11.513 7.37244 12.9125L2.18994 8.89999C4.04496 5.22139 7.25681 2.40755 11.1474 1.05249Z" fill="#E33629"/>
<path d="M0.814876 12.8749C1.09343 11.4944 1.55588 10.1575 2.18988 8.8999L7.37238 12.9224C6.69441 14.9189 6.69441 17.0834 7.37238 19.0799C5.64571 20.4132 3.91821 21.7532 2.18988 23.0999C0.602752 19.9407 0.118707 16.3412 0.814876 12.8749Z" fill="#F8BD00"/>
<path d="M16.3175 13.0376H31.1975C31.7065 15.8299 31.5688 18.7018 30.795 21.4326C30.0831 23.9438 28.7002 26.2135 26.795 27.9976C25.1225 26.6926 23.4425 25.3976 21.77 24.0926C22.5992 23.5333 23.3069 22.8123 23.8508 21.9729C24.3946 21.1335 24.7634 20.193 24.935 19.2076H16.3175C16.315 17.1526 16.3175 15.0951 16.3175 13.0376Z" fill="#587DBD"/>
<path d="M2.1875 23.1001C3.91583 21.7667 5.64333 20.4267 7.37 19.0801C8.03802 21.0406 9.30851 22.7398 11 23.9351C12.055 24.6807 13.2538 25.1984 14.52 25.4551C15.7676 25.6871 17.0474 25.6871 18.295 25.4551C19.539 25.2445 20.7252 24.7762 21.7775 24.0801C23.45 25.3851 25.13 26.6801 26.8025 27.9851C24.9722 29.6494 22.741 30.8098 20.3275 31.3526C17.6635 31.9788 14.8873 31.9488 12.2375 31.2651C10.1418 30.7055 8.18419 29.7191 6.4875 28.3676C4.69165 26.9418 3.22489 25.145 2.1875 23.1001Z" fill="#319F43"/>
</g>
<defs>
<clipPath id="clip0_19_268">
<rect width="32" height="32" fill="white"/>
</clipPath>
</defs>
</svg>
