<svg width="18" height="17" viewBox="0 0 18 17" fill="none" xmlns="http://www.w3.org/2000/svg">
<path d="M17.7241 14.4887L13.6436 10.8377C14.626 9.66754 15.1564 8.2432 15.1546 6.77967C15.1546 3.04138 11.7554 0 7.57728 0C3.39919 0 0 3.04138 0 6.77967C0 10.518 3.39919 13.5593 7.57728 13.5593C9.21299 13.561 10.8049 13.0865 12.1127 12.2074L16.1932 15.8584C16.3998 16.0236 16.6692 16.1118 16.9461 16.1049C17.2231 16.0979 17.4865 15.9964 17.6824 15.8211C17.8783 15.6459 17.9918 15.4101 17.9996 15.1623C18.0073 14.9145 17.9088 14.6735 17.7241 14.4887ZM2.16494 6.77967C2.16494 5.82189 2.48237 4.88562 3.07708 4.08925C3.6718 3.29289 4.51709 2.6722 5.50607 2.30567C6.49504 1.93915 7.58328 1.84325 8.63318 2.0301C9.68307 2.21695 10.6475 2.67817 11.4044 3.35542C12.1613 4.03267 12.6768 4.89555 12.8856 5.83492C13.0945 6.7743 12.9873 7.74799 12.5776 8.63286C12.168 9.51774 11.4743 10.274 10.5842 10.8062C9.69416 11.3383 8.64774 11.6223 7.57728 11.6223C6.14237 11.6208 4.76672 11.1101 3.75208 10.2022C2.73744 9.29439 2.16666 8.06354 2.16494 6.77967Z" fill="black" fill-opacity="0.25"/>
</svg>
