<svg width="132" height="24" viewBox="0 0 132 24" fill="none" xmlns="http://www.w3.org/2000/svg">
<path d="M24.2615 10.9838L19.2586 15.299L20.7828 21.7522C20.8669 22.1025 20.8453 22.4699 20.7206 22.8079C20.5959 23.146 20.3738 23.4395 20.0824 23.6514C19.7909 23.8633 19.4431 23.9841 19.083 23.9985C18.7229 24.013 18.3666 23.9204 18.059 23.7325L12.4447 20.2787L6.82696 23.7325C6.51947 23.9193 6.16357 24.011 5.80407 23.996C5.44457 23.9811 5.09753 23.8601 4.80667 23.6484C4.51581 23.4366 4.29412 23.1436 4.16953 22.8062C4.04493 22.4688 4.023 22.1021 4.10649 21.7522L5.63626 15.299L0.633355 10.9838C0.361305 10.7488 0.164554 10.4389 0.0676729 10.0927C-0.0292084 9.74661 -0.0219262 9.37961 0.0886101 9.03759C0.199146 8.69557 0.408038 8.39368 0.689197 8.16963C0.970356 7.94557 1.31132 7.80927 1.66951 7.77776L8.22888 7.24879L10.7592 1.1278C10.8962 0.794214 11.1293 0.50887 11.4289 0.308049C11.7286 0.107227 12.0811 0 12.4419 0C12.8026 0 13.1552 0.107227 13.4548 0.308049C13.7545 0.50887 13.9876 0.794214 14.1245 1.1278L16.6538 7.24879L23.2132 7.77776C23.5721 7.8081 23.914 7.94364 24.1962 8.16738C24.4784 8.39113 24.6882 8.69314 24.7995 9.03558C24.9107 9.37801 24.9183 9.74564 24.8215 10.0924C24.7246 10.4392 24.5275 10.7497 24.2549 10.9849L24.2615 10.9838Z" fill="#FFE81D"/>
<path d="M50.9284 10.9838L45.9255 15.299L47.4497 21.7522C47.5338 22.1025 47.5122 22.4699 47.3875 22.8079C47.2628 23.146 47.0407 23.4395 46.7492 23.6514C46.4578 23.8633 46.11 23.9841 45.7499 23.9985C45.3898 24.013 45.0334 23.9204 44.7259 23.7325L39.1115 20.2787L33.4938 23.7325C33.1863 23.9193 32.8304 24.011 32.4709 23.996C32.1114 23.9811 31.7644 23.8601 31.4735 23.6484C31.1827 23.4366 30.961 23.1436 30.8364 22.8062C30.7118 22.4688 30.6899 22.1021 30.7734 21.7522L32.3031 15.299L27.3002 10.9838C27.0282 10.7488 26.8314 10.4389 26.7345 10.0927C26.6377 9.74661 26.6449 9.37961 26.7555 9.03759C26.866 8.69557 27.0749 8.39368 27.3561 8.16963C27.6372 7.94557 27.9782 7.80927 28.3364 7.77776L34.8958 7.24879L37.4261 1.1278C37.5631 0.794214 37.7962 0.50887 38.0958 0.308049C38.3954 0.107227 38.748 0 39.1088 0C39.4695 0 39.8221 0.107227 40.1217 0.308049C40.4213 0.50887 40.6544 0.794214 40.7914 1.1278L43.3207 7.24879L49.88 7.77776C50.2389 7.8081 50.5809 7.94364 50.8631 8.16738C51.1452 8.39113 51.3551 8.69314 51.4663 9.03558C51.5775 9.37801 51.5852 9.74564 51.4883 10.0924C51.3915 10.4392 51.1944 10.7497 50.9217 10.9849L50.9284 10.9838Z" fill="#FFE81D"/>
<path d="M77.5948 10.9838L72.5919 15.299L74.1161 21.7522C74.2002 22.1025 74.1785 22.4699 74.0539 22.8079C73.9292 23.146 73.7071 23.4395 73.4156 23.6514C73.1242 23.8633 72.7764 23.9841 72.4163 23.9985C72.0561 24.013 71.6998 23.9204 71.3923 23.7325L65.7779 20.2787L60.1602 23.7325C59.8527 23.9193 59.4968 24.011 59.1373 23.996C58.7778 23.9811 58.4308 23.8601 58.1399 23.6484C57.8491 23.4366 57.6274 23.1436 57.5028 22.8062C57.3782 22.4688 57.3562 22.1021 57.4397 21.7522L58.9695 15.299L53.9666 10.9838C53.6946 10.7488 53.4978 10.4389 53.4009 10.0927C53.304 9.74661 53.3113 9.37961 53.4219 9.03759C53.5324 8.69557 53.7413 8.39368 54.0224 8.16963C54.3036 7.94557 54.6446 7.80927 55.0028 7.77776L61.5621 7.24879L64.0925 1.1278C64.2295 0.794214 64.4626 0.50887 64.7622 0.308049C65.0618 0.107227 65.4144 0 65.7751 0C66.1359 0 66.4885 0.107227 66.7881 0.308049C67.0877 0.50887 67.3208 0.794214 67.4578 1.1278L69.987 7.24879L76.5464 7.77776C76.9053 7.8081 77.2473 7.94364 77.5294 8.16738C77.8116 8.39113 78.0215 8.69314 78.1327 9.03558C78.2439 9.37801 78.2516 9.74564 78.1547 10.0924C78.0578 10.4392 77.8607 10.7497 77.5881 10.9849L77.5948 10.9838Z" fill="#FFE81D"/>
<path d="M104.262 10.9838L99.2586 15.299L100.783 21.7522C100.867 22.1025 100.845 22.4699 100.721 22.8079C100.596 23.146 100.374 23.4395 100.082 23.6514C99.7909 23.8633 99.4431 23.9841 99.083 23.9985C98.7229 24.013 98.3666 23.9204 98.059 23.7325L92.4447 20.2787L86.827 23.7325C86.5195 23.9193 86.1636 24.011 85.8041 23.996C85.4446 23.9811 85.0975 23.8601 84.8067 23.6484C84.5158 23.4366 84.2941 23.1436 84.1695 22.8062C84.0449 22.4688 84.023 22.1021 84.1065 21.7522L85.6363 15.299L80.6334 10.9838C80.3613 10.7488 80.1646 10.4389 80.0677 10.0927C79.9708 9.74661 79.9781 9.37961 80.0886 9.03759C80.1991 8.69557 80.408 8.39368 80.6892 8.16963C80.9704 7.94557 81.3113 7.80927 81.6695 7.77776L88.2289 7.24879L90.7592 1.1278C90.8962 0.794214 91.1293 0.50887 91.4289 0.308049C91.7286 0.107227 92.0811 0 92.4419 0C92.8026 0 93.1552 0.107227 93.4548 0.308049C93.7545 0.50887 93.9876 0.794214 94.1245 1.1278L96.6538 7.24879L103.213 7.77776C103.572 7.8081 103.914 7.94364 104.196 8.16738C104.478 8.39113 104.688 8.69314 104.799 9.03558C104.911 9.37801 104.918 9.74564 104.821 10.0924C104.725 10.4392 104.527 10.7497 104.255 10.9849L104.262 10.9838Z" fill="#FFE81D"/>
<path d="M130.928 10.9838L125.925 15.299L127.449 21.7522C127.533 22.1025 127.512 22.4699 127.387 22.8079C127.262 23.146 127.04 23.4395 126.749 23.6514C126.457 23.8633 126.11 23.9841 125.75 23.9985C125.389 24.013 125.033 23.9204 124.726 23.7325L119.111 20.2787L113.493 23.7325C113.186 23.9193 112.83 24.011 112.471 23.996C112.111 23.9811 111.764 23.8601 111.473 23.6484C111.182 23.4366 110.961 23.1436 110.836 22.8062C110.711 22.4688 110.69 22.1021 110.773 21.7522L112.303 15.299L107.3 10.9838C107.028 10.7488 106.831 10.4389 106.734 10.0927C106.637 9.74661 106.645 9.37961 106.755 9.03759C106.866 8.69557 107.075 8.39368 107.356 8.16963C107.637 7.94557 107.978 7.80927 108.336 7.77776L114.895 7.24879L117.426 1.1278C117.563 0.794214 117.796 0.50887 118.095 0.308049C118.395 0.107227 118.748 0 119.108 0C119.469 0 119.822 0.107227 120.121 0.308049C120.421 0.50887 120.654 0.794214 120.791 1.1278L123.32 7.24879L129.88 7.77776C130.239 7.8081 130.581 7.94364 130.863 8.16738C131.145 8.39113 131.355 8.69314 131.466 9.03558C131.577 9.37801 131.585 9.74564 131.488 10.0924C131.391 10.4392 131.194 10.7497 130.921 10.9849L130.928 10.9838Z" fill="#FFE81D"/>
</svg>
