<svg width="80" height="15" viewBox="0 0 80 15" fill="none" xmlns="http://www.w3.org/2000/svg">
<path d="M14.7536 6.67936L11.7113 9.30343L12.6382 13.2277C12.6894 13.4407 12.6762 13.6641 12.6004 13.8697C12.5246 14.0752 12.3895 14.2537 12.2123 14.3826C12.035 14.5115 11.8235 14.5849 11.6045 14.5937C11.3855 14.6025 11.1689 14.5462 10.9819 14.432L7.5677 12.3316L4.15153 14.432C3.96455 14.5455 3.74812 14.6013 3.5295 14.5922C3.31089 14.5831 3.09985 14.5095 2.92298 14.3808C2.7461 14.252 2.61129 14.0738 2.53552 13.8686C2.45976 13.6635 2.44642 13.4405 2.49719 13.2277L3.42746 9.30343L0.385148 6.67936C0.219713 6.53644 0.100067 6.34796 0.0411524 6.13748C-0.0177619 5.92699 -0.0133335 5.70382 0.0538845 5.49583C0.121103 5.28785 0.248131 5.10427 0.419106 4.96802C0.590081 4.83176 0.797425 4.74888 1.01524 4.72972L5.00405 4.40805L6.54278 0.685827C6.62607 0.482968 6.76783 0.309448 6.95003 0.187327C7.13223 0.0652056 7.34664 0 7.56601 0C7.78538 0 7.9998 0.0652056 8.182 0.187327C8.3642 0.309448 8.50595 0.482968 8.58924 0.685827L10.1273 4.40805L14.1161 4.72972C14.3344 4.74817 14.5423 4.83059 14.7139 4.96665C14.8855 5.10272 15.0131 5.28637 15.0807 5.49461C15.1484 5.70285 15.153 5.9264 15.0941 6.13727C15.0352 6.34815 14.9154 6.53695 14.7496 6.68003L14.7536 6.67936Z" fill="#FFE81D"/>
<path d="M30.9698 6.67936L27.9275 9.30343L28.8544 13.2277C28.9055 13.4407 28.8924 13.6641 28.8166 13.8697C28.7407 14.0752 28.6057 14.2537 28.4284 14.3826C28.2512 14.5115 28.0397 14.5849 27.8207 14.5937C27.6017 14.6025 27.385 14.5462 27.198 14.432L23.7839 12.3316L20.3677 14.432C20.1807 14.5455 19.9643 14.6013 19.7457 14.5922C19.5271 14.5831 19.316 14.5095 19.1392 14.3808C18.9623 14.252 18.8275 14.0738 18.7517 13.8686C18.6759 13.6635 18.6626 13.4405 18.7134 13.2277L19.6436 9.30343L16.6013 6.67936C16.4359 6.53644 16.3163 6.34796 16.2573 6.13748C16.1984 5.92699 16.2029 5.70382 16.2701 5.49583C16.3373 5.28785 16.4643 5.10427 16.6353 4.96802C16.8063 4.83176 17.0136 4.74888 17.2314 4.72972L21.2202 4.40805L22.759 0.685827C22.8423 0.482968 22.984 0.309448 23.1662 0.187327C23.3484 0.0652056 23.5628 0 23.7822 0C24.0016 0 24.216 0.0652056 24.3982 0.187327C24.5804 0.309448 24.7221 0.482968 24.8054 0.685827L26.3435 4.40805L30.3323 4.72972C30.5505 4.74817 30.7585 4.83059 30.9301 4.96665C31.1017 5.10272 31.2293 5.28637 31.2969 5.49461C31.3646 5.70285 31.3692 5.9264 31.3103 6.13727C31.2514 6.34815 31.1316 6.53695 30.9658 6.68003L30.9698 6.67936Z" fill="#FFE81D"/>
<path d="M47.186 6.67936L44.1437 9.30343L45.0706 13.2277C45.1217 13.4407 45.1086 13.6641 45.0327 13.8697C44.9569 14.0752 44.8219 14.2537 44.6446 14.3826C44.4674 14.5115 44.2559 14.5849 44.0369 14.5937C43.8179 14.6025 43.6012 14.5462 43.4142 14.432L40.0001 12.3316L36.5839 14.432C36.3969 14.5455 36.1805 14.6013 35.9619 14.5922C35.7433 14.5831 35.5322 14.5095 35.3553 14.3808C35.1785 14.252 35.0437 14.0738 34.9679 13.8686C34.8921 13.6635 34.8788 13.4405 34.9296 13.2277L35.8598 9.30343L32.8175 6.67936C32.6521 6.53644 32.5324 6.34796 32.4735 6.13748C32.4146 5.92699 32.419 5.70382 32.4863 5.49583C32.5535 5.28785 32.6805 5.10427 32.8515 4.96802C33.0225 4.83176 33.2298 4.74888 33.4476 4.72972L37.4364 4.40805L38.9752 0.685827C39.0584 0.482968 39.2002 0.309448 39.3824 0.187327C39.5646 0.0652056 39.779 0 39.9984 0C40.2178 0 40.4322 0.0652056 40.6144 0.187327C40.7966 0.309448 40.9383 0.482968 41.0216 0.685827L42.5597 4.40805L46.5485 4.72972C46.7667 4.74817 46.9747 4.83059 47.1463 4.96665C47.3179 5.10272 47.4455 5.28637 47.5131 5.49461C47.5808 5.70285 47.5854 5.9264 47.5265 6.13727C47.4676 6.34815 47.3477 6.53695 47.182 6.68003L47.186 6.67936Z" fill="#FFE81D"/>
<path d="M63.4023 6.67936L60.36 9.30343L61.2869 13.2277C61.338 13.4407 61.3249 13.6641 61.2491 13.8697C61.1732 14.0752 61.0382 14.2537 60.8609 14.3826C60.6837 14.5115 60.4722 14.5849 60.2532 14.5937C60.0342 14.6025 59.8175 14.5462 59.6305 14.432L56.2164 12.3316L52.8002 14.432C52.6132 14.5455 52.3968 14.6013 52.1782 14.5922C51.9596 14.5831 51.7485 14.5095 51.5717 14.3808C51.3948 14.252 51.26 14.0738 51.1842 13.8686C51.1084 13.6635 51.0951 13.4405 51.1459 13.2277L52.0761 9.30343L49.0338 6.67936C48.8684 6.53644 48.7487 6.34796 48.6898 6.13748C48.6309 5.92699 48.6353 5.70382 48.7026 5.49583C48.7698 5.28785 48.8968 5.10427 49.0678 4.96802C49.2388 4.83176 49.4461 4.74888 49.6639 4.72972L53.6527 4.40805L55.1915 0.685827C55.2748 0.482968 55.4165 0.309448 55.5987 0.187327C55.7809 0.0652056 55.9953 0 56.2147 0C56.4341 0 56.6485 0.0652056 56.8307 0.187327C57.0129 0.309448 57.1546 0.482968 57.2379 0.685827L58.776 4.40805L62.7648 4.72972C62.983 4.74817 63.191 4.83059 63.3626 4.96665C63.5342 5.10272 63.6618 5.28637 63.7294 5.49461C63.7971 5.70285 63.8017 5.9264 63.7428 6.13727C63.6839 6.34815 63.564 6.53695 63.3983 6.68003L63.4023 6.67936Z" fill="#FFE81D"/>
<path d="M79.6185 6.67936L76.5762 9.30343L77.5031 13.2277C77.5542 13.4407 77.5411 13.6641 77.4652 13.8697C77.3894 14.0752 77.2544 14.2537 77.0771 14.3826C76.8999 14.5115 76.6884 14.5849 76.4694 14.5937C76.2504 14.6025 76.0337 14.5462 75.8467 14.432L72.4326 12.3316L69.0164 14.432C68.8294 14.5455 68.613 14.6013 68.3944 14.5922C68.1758 14.5831 67.9647 14.5095 67.7878 14.3808C67.611 14.252 67.4762 14.0738 67.4004 13.8686C67.3246 13.6635 67.3113 13.4405 67.3621 13.2277L68.2923 9.30343L65.25 6.67936C65.0846 6.53644 64.9649 6.34796 64.906 6.13748C64.8471 5.92699 64.8515 5.70382 64.9188 5.49583C64.986 5.28785 65.113 5.10427 65.284 4.96802C65.4549 4.83176 65.6623 4.74888 65.8801 4.72972L69.8689 4.40805L71.4077 0.685827C71.4909 0.482968 71.6327 0.309448 71.8149 0.187327C71.9971 0.0652056 72.2115 0 72.4309 0C72.6503 0 72.8647 0.0652056 73.0469 0.187327C73.2291 0.309448 73.3708 0.482968 73.4541 0.685827L74.9922 4.40805L78.981 4.72972C79.1992 4.74817 79.4072 4.83059 79.5788 4.96665C79.7504 5.10272 79.878 5.28637 79.9456 5.49461C80.0133 5.70285 80.0179 5.9264 79.959 6.13727C79.9001 6.34815 79.7802 6.53695 79.6144 6.68003L79.6185 6.67936Z" fill="#FFE81D"/>
</svg>
