<svg width="41" height="41" viewBox="0 0 41 41" fill="none" xmlns="http://www.w3.org/2000/svg">
<path d="M11.8558 8.54167C11.8553 9.44782 11.4949 10.3167 10.8539 10.9571C10.2128 11.5975 9.34358 11.9571 8.43742 11.9566C7.53126 11.9562 6.6624 11.5958 6.02197 10.9547C5.38154 10.3136 5.02201 9.44441 5.02246 8.53825C5.02291 7.63209 5.38332 6.76323 6.02439 6.1228C6.66546 5.48237 7.53468 5.12284 8.44084 5.12329C9.34699 5.12374 10.2159 5.48415 10.8563 6.12522C11.4967 6.76629 11.8562 7.63551 11.8558 8.54167ZM11.9583 14.4867H5.12496V35.875H11.9583V14.4867ZM22.755 14.4867H15.9558V35.875H22.6866V24.6513C22.6866 18.3988 30.8354 17.8179 30.8354 24.6513V35.875H37.5833V22.3279C37.5833 11.7875 25.5225 12.1804 22.6866 17.3567L22.755 14.4867Z" fill="black"/>
</svg>
