<svg width="18" height="17" viewBox="0 0 18 17" fill="none" xmlns="http://www.w3.org/2000/svg">
<path d="M17.7241 14.9555L13.6436 11.3045C14.626 10.1343 15.1564 8.71 15.1546 7.24647C15.1546 3.50818 11.7554 0.466797 7.57728 0.466797C3.39919 0.466797 0 3.50818 0 7.24647C0 10.9848 3.39919 14.0261 7.57728 14.0261C9.21299 14.0278 10.8049 13.5533 12.1127 12.6742L16.1932 16.3252C16.3998 16.4904 16.6692 16.5786 16.9461 16.5717C17.2231 16.5647 17.4865 16.4632 17.6824 16.2879C17.8783 16.1126 17.9918 15.8769 17.9996 15.6291C18.0073 15.3813 17.9088 15.1403 17.7241 14.9555ZM2.16494 7.24647C2.16494 6.28869 2.48237 5.35242 3.07708 4.55605C3.6718 3.75969 4.51709 3.139 5.50607 2.77247C6.49504 2.40594 7.58328 2.31004 8.63318 2.4969C9.68307 2.68375 10.6475 3.14496 11.4044 3.82222C12.1613 4.49947 12.6768 5.36234 12.8856 6.30172C13.0945 7.2411 12.9873 8.21479 12.5776 9.09966C12.168 9.98453 11.4743 10.7408 10.5842 11.273C9.69416 11.8051 8.64774 12.0891 7.57728 12.0891C6.14237 12.0875 4.76672 11.5769 3.75208 10.669C2.73744 9.76118 2.16666 8.53034 2.16494 7.24647Z" fill="black"/>
</svg>
