<svg width="15" height="21" viewBox="0 0 15 21" fill="none" xmlns="http://www.w3.org/2000/svg">
<path d="M7.5 9.975C6.7896 9.975 6.10829 9.69844 5.60596 9.20615C5.10363 8.71387 4.82143 8.04619 4.82143 7.35C4.82143 6.65381 5.10363 5.98613 5.60596 5.49384C6.10829 5.00156 6.7896 4.725 7.5 4.725C8.2104 4.725 8.89171 5.00156 9.39404 5.49384C9.89637 5.98613 10.1786 6.65381 10.1786 7.35C10.1786 7.69472 10.1093 8.03606 9.97468 8.35454C9.84007 8.67302 9.64276 8.9624 9.39404 9.20615C9.14531 9.44991 8.85002 9.64326 8.52505 9.77518C8.20007 9.9071 7.85175 9.975 7.5 9.975ZM7.5 0C5.51088 0 3.60322 0.774373 2.1967 2.15277C0.790176 3.53116 0 5.40066 0 7.35C0 12.8625 7.5 21 7.5 21C7.5 21 15 12.8625 15 7.35C15 5.40066 14.2098 3.53116 12.8033 2.15277C11.3968 0.774373 9.48912 0 7.5 0Z" fill="black" fill-opacity="0.25"/>
</svg>
